<svg width="129" height="43" viewBox="0 0 129 43" fill="none" xmlns="http://www.w3.org/2000/svg">
<path d="M24.716 28.352C24.716 30.016 24.284 31.584 23.42 33.056C22.588 34.496 21.34 35.696 19.676 36.656C18.044 37.584 16.108 38.128 13.868 38.288V42.176H10.796V38.24C7.596 37.952 5.02 36.992 3.068 35.36C1.116 33.696 0.108 31.456 0.0440001 28.64H7.244C7.436 30.944 8.62 32.336 10.796 32.816V23.648C8.492 23.072 6.636 22.496 5.228 21.92C3.82 21.344 2.604 20.416 1.58 19.136C0.556 17.856 0.0440001 16.112 0.0440001 13.904C0.0440001 11.12 1.036 8.848 3.02 7.088C5.036 5.328 7.628 4.32 10.796 4.064V0.175998H13.868V4.064C16.94 4.32 19.388 5.248 21.212 6.848C23.068 8.448 24.108 10.656 24.332 13.472H17.084C16.988 12.544 16.652 11.744 16.076 11.072C15.532 10.368 14.796 9.872 13.868 9.584V18.656C16.268 19.264 18.156 19.856 19.532 20.432C20.94 20.976 22.156 21.888 23.18 23.168C24.204 24.416 24.716 26.144 24.716 28.352ZM7.052 13.568C7.052 14.624 7.372 15.488 8.012 16.16C8.652 16.8 9.58 17.328 10.796 17.744V9.44C9.644 9.6 8.732 10.032 8.06 10.736C7.388 11.44 7.052 12.384 7.052 13.568ZM13.868 32.912C15.084 32.688 16.028 32.192 16.7 31.424C17.404 30.656 17.756 29.728 17.756 28.64C17.756 27.584 17.42 26.736 16.748 26.096C16.076 25.456 15.116 24.928 13.868 24.512V32.912ZM33.5623 30.416C36.6343 27.856 39.0823 25.728 40.9062 24.032C42.7303 22.304 44.2503 20.512 45.4663 18.656C46.6823 16.8 47.2903 14.976 47.2903 13.184C47.2903 11.552 46.9063 10.272 46.1383 9.344C45.3703 8.416 44.1863 7.952 42.5863 7.952C40.9863 7.952 39.7543 8.496 38.8903 9.584C38.0263 10.64 37.5783 12.096 37.5463 13.952H31.0183C31.1463 10.112 32.2823 7.2 34.4263 5.216C36.6023 3.232 39.3543 2.24 42.6823 2.24C46.3303 2.24 49.1303 3.216 51.0823 5.168C53.0343 7.088 54.0103 9.632 54.0103 12.8C54.0103 15.296 53.3383 17.68 51.9943 19.952C50.6503 22.224 49.1143 24.208 47.3863 25.904C45.6583 27.568 43.4023 29.584 40.6183 31.952H54.7783V37.52H31.0663V32.528L33.5623 30.416ZM96.3088 4.496V38H89.5888V16.208L80.6128 38H75.5248L66.5008 16.208V38H59.7808V4.496H67.4128L78.0688 29.408L88.7248 4.496H96.3088Z" fill="#1F262E"/>
<path d="M128.057 23.84H118.985V33.152H112.649V23.84H103.577V17.984H112.649V8.672H118.985V17.984H128.057V23.84Z" fill="#BC8AFC"/>
</svg>
