<svg width="108" height="36" viewBox="0 0 108 36" fill="none" xmlns="http://www.w3.org/2000/svg">
<path d="M0.228 7.2V1.008H11.796V36H4.884V7.2H0.228ZM18.4346 18.048C18.4346 12.512 19.4266 8.176 21.4106 5.04C23.4266 1.904 26.7546 0.335999 31.3946 0.335999C36.0346 0.335999 39.3466 1.904 41.3306 5.04C43.3466 8.176 44.3546 12.512 44.3546 18.048C44.3546 23.616 43.3466 27.984 41.3306 31.152C39.3466 34.32 36.0346 35.904 31.3946 35.904C26.7546 35.904 23.4266 34.32 21.4106 31.152C19.4266 27.984 18.4346 23.616 18.4346 18.048ZM37.7306 18.048C37.7306 15.68 37.5706 13.696 37.2506 12.096C36.9626 10.464 36.3546 9.136 35.4266 8.112C34.5306 7.088 33.1866 6.576 31.3946 6.576C29.6026 6.576 28.2426 7.088 27.3146 8.112C26.4186 9.136 25.8106 10.464 25.4906 12.096C25.2026 13.696 25.0586 15.68 25.0586 18.048C25.0586 20.48 25.2026 22.528 25.4906 24.192C25.7786 25.824 26.3866 27.152 27.3146 28.176C28.2426 29.168 29.6026 29.664 31.3946 29.664C33.1866 29.664 34.5466 29.168 35.4746 28.176C36.4026 27.152 37.0106 25.824 37.2986 24.192C37.5866 22.528 37.7306 20.48 37.7306 18.048ZM69.1459 36L56.9539 21.072V36H50.2339V2.496H56.9539V17.52L69.1459 2.496H77.2579L63.4339 19.104L77.6419 36H69.1459Z" fill="#1F262E"/>
<path d="M107.166 21.84H98.094V31.152H91.758V21.84H82.686V15.984H91.758V6.672H98.094V15.984H107.166V21.84Z" fill="#BC8AFC"/>
</svg>
