<svg width="85" height="36" viewBox="0 0 85 36" fill="none" xmlns="http://www.w3.org/2000/svg">
<path d="M23.816 6.096L11.048 36H4.232L17.096 6.864H0.68V1.104H23.816V6.096ZM27.8409 18.048C27.8409 12.512 28.8329 8.176 30.8169 5.04C32.8329 1.904 36.1609 0.335999 40.8009 0.335999C45.4409 0.335999 48.7529 1.904 50.7369 5.04C52.7529 8.176 53.7609 12.512 53.7609 18.048C53.7609 23.616 52.7529 27.984 50.7369 31.152C48.7529 34.32 45.4409 35.904 40.8009 35.904C36.1609 35.904 32.8329 34.32 30.8169 31.152C28.8329 27.984 27.8409 23.616 27.8409 18.048ZM47.1369 18.048C47.1369 15.68 46.9769 13.696 46.6569 12.096C46.3689 10.464 45.7609 9.136 44.8329 8.112C43.9369 7.088 42.5929 6.576 40.8009 6.576C39.0089 6.576 37.6489 7.088 36.7209 8.112C35.8249 9.136 35.2169 10.464 34.8969 12.096C34.6089 13.696 34.4649 15.68 34.4649 18.048C34.4649 20.48 34.6089 22.528 34.8969 24.192C35.1849 25.824 35.7929 27.152 36.7209 28.176C37.6489 29.168 39.0089 29.664 40.8009 29.664C42.5929 29.664 43.9529 29.168 44.8809 28.176C45.8089 27.152 46.4169 25.824 46.7049 24.192C46.9929 22.528 47.1369 20.48 47.1369 18.048Z" fill="#1F262E"/>
<path d="M84.7441 21.84H75.6721V31.152H69.3361V21.84H60.2641V15.984H69.3361V6.672H75.6721V15.984H84.7441V21.84Z" fill="#BC8AFC"/>
</svg>
